<svg width="48" height="48" xmlns="http://www.w3.org/2000/svg">

 <g>
  <title>background</title>
  <rect fill="none" id="canvas_background" height="402" width="582" y="-1" x="-1"/>
 </g>
 <g>
  <title fill="#4f95ff">Layer 1</title>
  <path fill="#4f95ff" id="svg_4" d="m6.214203,26.58566c1.4,0 2.5,-0.9 2.8,-2.2l0.8,0c0.2,3.3 1.4,6.5 3.8,9.1l-1.7,1.7c-0.6,-0.4 -1.4,-0.6 -2.1,-0.6c-1,0 -2,0.4 -2.7,1.1c-1.5,1.5 -1.5,3.9 0,5.4c0.7,0.7 1.7,1.1 2.7,1.1s2,-0.4 2.7,-1.1s1.1,-1.7 1.1,-2.7c0,-0.8 -0.2,-1.5 -0.6,-2.1l1.7,-1.7c2.5,2.3 5.7,3.6 9.1,3.8l0,0.8c-1.2,0.3 -2.2,1.5 -2.2,2.8c0,1.6 1.3,2.9 2.9,2.9s2.9,-1.3 2.9,-2.9c0,-1.4 -0.9,-2.5 -2.2,-2.8l0,-0.8c3.4,-0.2 6.6,-1.5 9.1,-3.8l1.7,1.7c-1,1.5 -0.8,3.5 0.5,4.9c0.7,0.7 1.7,1.1 2.7,1.1s2,-0.4 2.7,-1.1s1.1,-1.7 1.1,-2.7s-0.4,-2 -1.1,-2.7c-1.3,-1.3 -3.4,-1.4 -4.9,-0.5l-1.7,-1.7c2.3,-2.5 3.6,-5.7 3.8,-9.1l0.8,0c0.3,1.2 1.5,2.2 2.8,2.2c1.6,0 2.9,-1.3 2.9,-2.9s-1.1,-3 -2.7,-3c-1.4,0 -2.5,0.9 -2.8,2.2l-0.8,0c-0.2,-3.4 -1.5,-6.6 -3.8,-9.1l1.7,-1.7c0.6,0.4 1.4,0.6 2.1,0.6c1,0 2,-0.4 2.7,-1.1s1.1,-1.7 1.1,-2.7s-0.4,-2 -1.1,-2.7c-1.5,-1.5 -4,-1.5 -5.4,0c-1.3,1.3 -1.5,3.4 -0.5,4.9l-1.7,1.6c-0.6,-0.6 -1.3,-1.1 -2,-1.5c-0.6,-1.2 -1.8,-2 -3.2,-2c-0.4,0 -0.7,0.1 -1.1,0.2c-0.9,-0.2 -1.8,-0.4 -2.8,-0.4l0,-0.9c1.2,-0.3 2.2,-1.5 2.2,-2.8c0,-1.6 -1.3,-2.9 -2.9,-2.9s-2.9,1.2 -2.9,2.8c0,1.4 0.9,2.5 2.2,2.8l0,0.8c-3.4,0.3 -6.7,1.6 -9.2,3.9l-1.7,-1.7c0.4,-0.7 0.7,-1.4 0.7,-2.2c0,-1 -0.4,-2 -1.1,-2.7c-1.5,-1.4 -4,-1.4 -5.5,0c-1.5,1.5 -1.5,3.9 0,5.4c0.7,0.8 1.7,1.2 2.7,1.2c0.8,0 1.5,-0.2 2.1,-0.6l1.8,1.6c-2.3,2.6 -3.6,5.8 -3.8,9.1l-0.8,0c-0.4,-1.2 -1.5,-2.1 -2.9,-2.1c-1.6,0 -2.9,1.3 -2.9,2.9s1.3,2.9 2.9,2.9zm36.7,-4.3c0.8,0 1.4,0.6 1.4,1.4s-0.6,1.4 -1.4,1.4s-1.4,-0.6 -1.4,-1.4s0.6,-1.4 1.4,-1.4zm-31.4,17.8c-0.9,0.9 -2.4,0.9 -3.3,0c-0.9,-0.9 -0.9,-2.4 0,-3.3c0.4,-0.4 1,-0.7 1.7,-0.7s1.2,0.2 1.7,0.7s0.7,1 0.7,1.7s-0.4,1.1 -0.8,1.6zm14.5,1.9c0,0.8 -0.6,1.4 -1.4,1.4s-1.4,-0.6 -1.4,-1.4s0.6,-1.4 1.4,-1.4s1.4,0.6 1.4,1.4zm15,-5.2c0.4,0.4 0.7,1 0.7,1.7s-0.2,1.2 -0.7,1.7c-0.9,0.9 -2.4,0.9 -3.3,0c-1,-1 -1,-2.5 0,-3.4c0.8,-0.9 2.4,-0.9 3.3,0zm-3.3,-29.5c0.4,-0.4 1,-0.7 1.7,-0.7s1.2,0.2 1.7,0.7s0.7,1 0.7,1.7s-0.2,1.2 -0.7,1.7c-0.9,0.9 -2.4,0.9 -3.3,0c-1.1,-1 -1.1,-2.5 -0.1,-3.4zm-6.4,5.5c0,1.2 -1,2.1 -2.1,2.1c-1.2,0 -2.1,-1 -2.1,-2.1s1,-2.1 2.1,-2.1c1.1,0 2.1,0.9 2.1,2.1zm-8.1,-7.5c0,-0.8 0.6,-1.4 1.4,-1.4s1.4,0.6 1.4,1.4c0,0.8 -0.6,1.4 -1.4,1.4s-1.4,-0.6 -1.4,-1.4zm-15,5.3c-0.9,-0.9 -0.9,-2.4 0,-3.3c0.4,-0.4 1,-0.7 1.7,-0.7s1.1,0.2 1.6,0.7s0.7,1 0.7,1.7s-0.3,1.1 -0.7,1.6c-0.9,0.9 -2.4,0.9 -3.3,0zm6.5,4.3l1.3,1.3l1.1,-1.1l-1.3,-1.3c2.9,-2.6 6.8,-3.7 10.6,-3.2c-0.5,0.6 -0.8,1.4 -0.8,2.2c0,0.9 0.4,1.8 1,2.4l-1.3,1.6l1.2,0.9l1.3,-1.6c0.4,0.2 0.9,0.3 1.4,0.3c1.8,0 3.3,-1.4 3.6,-3.2c0.4,0.3 0.8,0.7 1.2,1c2.3,2.3 3.7,5.4 3.8,8.6l-3,0l0,1.5l3,0c-0.2,3.2 -1.5,6.3 -3.8,8.6c-2.3,2.3 -5.3,3.7 -8.6,3.8l0,-2l-1.5,0l0,2c-3.2,-0.2 -6.3,-1.5 -8.6,-3.8c-5.1,-4.9 -5.2,-12.8 -0.6,-18zm-8.5,7.4c0.8,0 1.4,0.6 1.4,1.4s-0.6,1.4 -1.4,1.4s-1.4,-0.6 -1.4,-1.4s0.7,-1.4 1.4,-1.4z" class="st1"/>
  <path fill="#4f95ff" id="svg_5" d="m29.614203,25.98566c2.2,0 4,-1.8 4,-4s-1.8,-4 -4,-4c-2.1,0 -3.7,1.6 -3.9,3.6l-2.2,0l0,1.5l2.3,0c0.5,1.7 2,2.9 3.8,2.9zm0,-6.4c1.4,0 2.5,1.1 2.5,2.5s-1.1,2.5 -2.5,2.5s-2.5,-1.1 -2.5,-2.5s1.1,-2.5 2.5,-2.5z" class="st1"/>
  <path fill="#4f95ff" id="svg_6" d="m18.814203,26.18566c0,-0.2 0,-0.3 0,-0.5l2.2,-0.7l-0.5,-1.4l-2.2,0.7c-0.6,-0.9 -1.6,-1.4 -2.7,-1.4c-1.8,0 -3.3,1.5 -3.3,3.3c0,1.8 1.5,3.3 3.3,3.3s3.2,-1.4 3.2,-3.3zm-5.1,0c0,-1 0.8,-1.8 1.8,-1.8s1.8,0.8 1.8,1.8s-0.8,1.8 -1.8,1.8s-1.8,-0.8 -1.8,-1.8z" class="st1"/>
  <path fill="#4f95ff" id="svg_7" d="m29.714203,29.28566c-0.5,0 -0.9,0.1 -1.3,0.3l-1.1,-1.3l-1.2,1l1.1,1.4c-0.2,0.4 -0.4,0.9 -0.4,1.4c0,1.5 1.2,2.7 2.7,2.7c1.5,0 2.7,-1.2 2.7,-2.7s-1,-2.8 -2.5,-2.8zm0,4c-0.7,0 -1.2,-0.6 -1.2,-1.2s0.5,-1.3 1.2,-1.3c0.7,0 1.2,0.6 1.2,1.2s-0.5,1.3 -1.2,1.3z" class="st1"/>
  <path fill="#4f95ff" id="svg_8" d="m20.414203,19.58566c0.2,0 0.3,0 0.5,0l0.5,1.1l1.4,-0.6l-0.5,-1.2c0.6,-0.5 0.9,-1.2 0.9,-2c0,-1.5 -1.2,-2.7 -2.7,-2.7c-1.5,0 -2.7,1.2 -2.7,2.7s1.1,2.7 2.6,2.7zm0,-4c0.7,0 1.2,0.6 1.2,1.2s-0.6,1.2 -1.2,1.2c-0.7,0 -1.2,-0.6 -1.2,-1.2s0.5,-1.2 1.2,-1.2z" class="st1"/>
 </g>
</svg>