<?xml version="1.0" encoding="UTF-8" standalone="no"?>
<!-- Created with Inkscape (http://www.inkscape.org/) -->

<svg
   xmlns:dc="http://purl.org/dc/elements/1.1/"
   xmlns:cc="http://creativecommons.org/ns#"
   xmlns:rdf="http://www.w3.org/1999/02/22-rdf-syntax-ns#"
   xmlns:svg="http://www.w3.org/2000/svg"
   xmlns="http://www.w3.org/2000/svg"
   xmlns:sodipodi="http://sodipodi.sourceforge.net/DTD/sodipodi-0.dtd"
   xmlns:inkscape="http://www.inkscape.org/namespaces/inkscape"
   width="11.191875mm"
   height="11.350625mm"
   viewBox="0 0 11.191875 11.350625"
   version="1.1"
   id="svg8"
   inkscape:version="0.92.4 (5da689c313, 2019-01-14)"
   sodipodi:docname="covid19.svg">
  <defs
     id="defs2" />
  <sodipodi:namedview
     id="base"
     pagecolor="#ffffff"
     bordercolor="#666666"
     borderopacity="1.0"
     inkscape:pageopacity="0.0"
     inkscape:pageshadow="2"
     inkscape:zoom="11.2"
     inkscape:cx="39.392552"
     inkscape:cy="21.716779"
     inkscape:document-units="mm"
     inkscape:current-layer="g3766"
     showgrid="false"
     inkscape:window-width="1280"
     inkscape:window-height="961"
     inkscape:window-x="-8"
     inkscape:window-y="-8"
     inkscape:window-maximized="1" />
  <metadata
     id="metadata5">
    <rdf:RDF>
      <cc:Work
         rdf:about="">
        <dc:format>image/svg+xml</dc:format>
        <dc:type
           rdf:resource="http://purl.org/dc/dcmitype/StillImage" />
        <dc:title></dc:title>
      </cc:Work>
    </rdf:RDF>
  </metadata>
  <g
     inkscape:label="Layer 1"
     inkscape:groupmode="layer"
     id="layer1"
     transform="translate(-57.057642,-120.84916)">
    <g
       id="g3766"
       transform="matrix(0.26458333,0,0,0.26458333,56.872434,120.69041)">
      <g
         id="g3748"
         style="fill:#f50057;fill-opacity:1" />
      <g
         id="g3764"
         style="fill:#f50057;fill-opacity:1">
        <path
           id="path3750"
           d="m 41.2,27.4 -3.2,-1 c 0.2,-0.3 0.5,-0.7 0.8,-1.1 0.7,-1 1.6,-2 1.6,-3.3 0,-1.3 -0.8,-2.4 -1.6,-3.3 C 38.5,18.3 38.2,18 38,17.6 l 3.2,-1 0.4,1.3 1.4,-0.5 -1.3,-4 -1.4,0.5 0.4,1.3 -3.2,1 c 0,-0.4 0,-0.9 0,-1.4 0,-1.2 0.1,-2.5 -0.7,-3.5 -0.7,-1 -2,-1.4 -3.2,-1.7 C 33.1,9.5 32.7,9.3 32.3,9.2 l 2,-2.7 1.1,0.8 0.9,-1.2 -3.4,-2.5 -0.9,1.1 1.1,0.8 -2,2.7 C 30.8,7.9 30.5,7.5 30.3,7.1 29.6,6.1 28.8,5 27.6,4.6 26.4,4.2 25.2,4.6 24.1,5 23.6,5.2 23.1,5.3 22.7,5.4 V 2.1 H 24 V 0.6 h -4.2 v 1.5 h 1.4 V 5.5 C 20.7,5.4 20.3,5.2 19.8,5.1 18.6,4.7 17.4,4.3 16.3,4.7 15.1,5.1 14.3,6.2 13.6,7.2 13.3,7.6 13.1,8 12.8,8.3 L 10.8,5.6 11.9,4.8 11,3.6 7.4,5.9 8.3,7.1 9.4,6.3 11.4,9 C 11,9.2 10.5,9.3 10.1,9.4 8.9,9.8 7.7,10.1 6.9,11.1 c -0.7,1 -0.7,2.3 -0.7,3.5 0,0.5 0,1 0,1.4 L 3,15 3.4,13.7 2,13.4 l -1.3,4 1.4,0.5 0.4,-1.3 3.2,1 c -0.2,0.3 -0.5,0.7 -0.8,1.1 -0.7,1 -1.6,2 -1.6,3.3 0,1.3 0.8,2.4 1.6,3.3 0.3,0.4 0.6,0.7 0.8,1.1 l -3.2,1 -0.4,-1.3 -1.4,0.5 1.3,4 1.4,-0.5 -0.4,-1.2 3.2,-1 c 0,0.4 0,0.9 0,1.4 0,1.2 -0.1,2.5 0.7,3.5 0.7,1 2,1.4 3.2,1.7 0.5,0.1 0.9,0.3 1.3,0.4 l -2,2.7 -1.1,-0.8 -0.9,1.2 3.4,2.5 0.9,-1.2 -1.1,-0.8 2,-2.7 c 0.3,0.3 0.6,0.7 0.8,1.1 0.7,1 1.5,2.1 2.7,2.5 1.2,0.4 2.4,0 3.5,-0.4 0.5,-0.2 1,-0.3 1.4,-0.4 V 42 h -1.4 v 1.5 H 24 V 42 h -1.4 v -3.4 c 0.5,0.1 0.9,0.3 1.4,0.4 0.8,0.3 1.7,0.6 2.6,0.6 0.3,0 0.7,0 1,-0.1 1.2,-0.4 2,-1.5 2.7,-2.5 0.3,-0.4 0.5,-0.8 0.8,-1.1 l 2,2.7 -1.1,0.7 0.9,1.2 3.4,-2.5 -0.9,-1.2 -1.1,0.8 -2,-2.7 c 0.4,-0.2 0.9,-0.3 1.3,-0.4 1.2,-0.4 2.4,-0.7 3.2,-1.7 0.7,-1 0.7,-2.3 0.7,-3.5 0,-0.5 0,-1 0,-1.4 l 3.2,1 -0.4,1.3 1.4,0.5 1.3,-4 -1.4,-0.5 z m -5,-0.8 c -0.3,0.8 -0.3,1.8 -0.2,2.7 0,1 0,2 -0.4,2.6 -0.4,0.6 -1.4,0.9 -2.4,1.2 -0.9,0.3 -1.7,0.5 -2.5,1 -0.7,0.5 -1.2,1.3 -1.7,2 -0.6,0.9 -1.2,1.7 -1.9,1.9 -0.7,0.2 -1.6,-0.1 -2.6,-0.4 -0.9,-0.3 -1.8,-0.6 -2.7,-0.6 -0.9,0 -1.8,0.3 -2.7,0.6 -1,0.3 -1.9,0.7 -2.6,0.4 -0.7,-0.2 -1.3,-1 -1.9,-1.9 -0.5,-0.7 -1,-1.5 -1.7,-2 -0.7,-0.5 -1.6,-0.8 -2.5,-1 C 9.4,32.8 8.4,32.5 8,31.9 7.6,31.3 7.6,30.3 7.6,29.3 7.6,28.4 7.6,27.5 7.4,26.6 7.1,25.8 6.6,25.1 6.1,24.4 5.5,23.6 4.8,22.8 4.8,22 c 0,-0.8 0.6,-1.6 1.3,-2.4 0.5,-0.7 1.1,-1.4 1.3,-2.2 0.3,-0.8 0.3,-1.8 0.2,-2.7 0,-1 0,-2 0.4,-2.6 0.4,-0.6 1.4,-0.9 2.4,-1.2 0.9,-0.3 1.7,-0.5 2.5,-1 0.7,-0.5 1.2,-1.3 1.7,-2 C 15.2,7 15.8,6.2 16.5,6 17.2,5.8 18.1,6.1 19.1,6.4 20,6.7 20.9,7 21.8,7 c 0.9,0 1.8,-0.3 2.7,-0.6 1,-0.3 1.9,-0.7 2.6,-0.4 0.7,0.2 1.3,1 1.9,1.9 0.5,0.7 1,1.5 1.7,2 0.7,0.5 1.6,0.8 2.5,1 1,0.3 2,0.6 2.4,1.2 0.4,0.6 0.4,1.6 0.4,2.6 0,0.9 0,1.8 0.2,2.7 0.3,0.8 0.8,1.5 1.3,2.2 0.6,0.8 1.3,1.6 1.3,2.4 0,0.8 -0.6,1.6 -1.3,2.4 -0.5,0.7 -1,1.4 -1.3,2.2 z"
           class="st1"
           inkscape:connector-curvature="0"
           style="fill:#f50057;fill-opacity:1" />
        <path
           id="path3752"
           d="m 17.2,10 c -2,0 -3.7,1.6 -3.7,3.6 0,2 1.6,3.6 3.7,3.6 2.1,0 3.7,-1.6 3.7,-3.6 0,-2 -1.7,-3.6 -3.7,-3.6 z m 0,5.8 c -1.2,0 -2.2,-1 -2.2,-2.1 0,-1.2 1,-2.1 2.2,-2.1 1.2,0 2.2,1 2.2,2.1 0,1.1 -1,2.1 -2.2,2.1 z"
           class="st1"
           inkscape:connector-curvature="0"
           style="fill:#f50057;fill-opacity:1" />
        <path
           id="path3754"
           d="m 14.1,20.5 c 0,-1.4 -1.2,-2.6 -2.6,-2.6 -1.4,0 -2.6,1.2 -2.6,2.6 0,1.4 1.2,2.6 2.6,2.6 1.4,0 2.6,-1.1 2.6,-2.6 z m -3.8,0 c 0,-0.6 0.5,-1.1 1.1,-1.1 0.6,0 1.1,0.5 1.1,1.1 0,0.6 -0.5,1.1 -1.1,1.1 -0.6,0 -1.1,-0.5 -1.1,-1.1 z"
           class="st1"
           inkscape:connector-curvature="0"
           style="fill:#f50057;fill-opacity:1" />
        <path
           id="path3756"
           d="m 14.8,25 c -1.9,0 -3.5,1.6 -3.5,3.5 0,1.9 1.6,3.5 3.5,3.5 1.9,0 3.5,-1.6 3.5,-3.5 0,-1.9 -1.6,-3.5 -3.5,-3.5 z m 0,5.5 c -1.1,0 -2,-0.9 -2,-2 0,-1.1 0.9,-2 2,-2 1.1,0 2,0.9 2,2 0,1.1 -0.9,2 -2,2 z"
           class="st1"
           inkscape:connector-curvature="0"
           style="fill:#f50057;fill-opacity:1" />
        <path
           id="path3758"
           d="m 24.7,27.6 c -2,0 -3.6,1.6 -3.6,3.6 0,2 1.6,3.6 3.6,3.6 2,0 3.6,-1.6 3.6,-3.6 0.1,-2 -1.5,-3.6 -3.6,-3.6 z m 0,5.7 c -1.2,0 -2.1,-0.9 -2.1,-2.1 0,-1.2 1,-2.1 2.1,-2.1 1.1,0 2.1,0.9 2.1,2.1 0.1,1.2 -0.9,2.1 -2.1,2.1 z"
           class="st1"
           inkscape:connector-curvature="0"
           style="fill:#f50057;fill-opacity:1" />
        <path
           id="path3760"
           d="m 31.6,21.6 c -1.7,0 -3,1.3 -3,3 0,1.7 1.4,3 3,3 1.6,0 3,-1.3 3,-3 0,-1.7 -1.3,-3 -3,-3 z m 0,4.5 c -0.8,0 -1.5,-0.7 -1.5,-1.5 0,-0.8 0.7,-1.5 1.5,-1.5 0.8,0 1.5,0.7 1.5,1.5 0,0.8 -0.6,1.5 -1.5,1.5 z"
           class="st1"
           inkscape:connector-curvature="0"
           style="fill:#f50057;fill-opacity:1" />
        <path
           id="path3762"
           d="m 29.8,20 c 2.3,0 4.2,-1.9 4.2,-4.2 0,-2.3 -1.9,-4.2 -4.2,-4.2 -2.3,0 -4.2,1.9 -4.2,4.2 0,2.3 1.9,4.2 4.2,4.2 z m 0,-6.8 c 1.5,0 2.7,1.2 2.7,2.7 0,1.5 -1.2,2.7 -2.7,2.7 -1.5,0 -2.7,-1.2 -2.7,-2.7 0,-1.5 1.2,-2.7 2.7,-2.7 z"
           class="st1"
           inkscape:connector-curvature="0"
           style="fill:#f50057;fill-opacity:1" />
      </g>
    </g>
  </g>
  <style
     id="style3744"
     type="text/css">
	.st0{fill:#C7D8F2;}
	.st1{fill:#384A66;}
</style>
</svg>
