<svg xmlns="http://www.w3.org/2000/svg" width="48" height="48" fill="#f50057" xmlns:v="https://vecta.io/nano"><path d="M5.7 27c1.4 0 2.5-.9 2.8-2.2h.8c.2 3.3 1.4 6.5 3.8 9.1l-1.7 1.7c-.6-.4-1.4-.6-2.1-.6-1 0-2 .4-2.7 1.1a3.8 3.8 0 0 0 0 5.4c.7.7 1.7 1.1 2.7 1.1s2-.4 2.7-1.1 1.1-1.7 1.1-2.7c0-.8-.2-1.5-.6-2.1l1.7-1.7c2.5 2.3 5.7 3.6 9.1 3.8v.8c-1.2.3-2.2 1.5-2.2 2.8 0 1.6 1.3 2.9 2.9 2.9s2.9-1.3 2.9-2.9c0-1.4-.9-2.5-2.2-2.8v-.8c3.4-.2 6.6-1.5 9.1-3.8l1.7 1.7c-1 1.5-.8 3.5.5 4.9.7.7 1.7 1.1 2.7 1.1s2-.4 2.7-1.1 1.1-1.7 1.1-2.7-.4-2-1.1-2.7c-1.3-1.3-3.4-1.4-4.9-.5L34.8 34c2.3-2.5 3.6-5.7 3.8-9.1h.8c.3 1.2 1.5 2.2 2.8 2.2 1.6 0 2.9-1.3 2.9-2.9s-1.1-3-2.7-3c-1.4 0-2.5.9-2.8 2.2h-.8c-.2-3.4-1.5-6.6-3.8-9.1l1.7-1.7c.6.4 1.4.6 2.1.6 1 0 2-.4 2.7-1.1s1.1-1.7 1.1-2.7-.4-2-1.1-2.7c-1.5-1.5-4-1.5-5.4 0a3.94 3.94 0 0 0-.5 4.9l-1.7 1.6a9.51 9.51 0 0 0-2-1.5c-.6-1.2-1.8-2-3.2-2-.4 0-.7.1-1.1.2-.9-.2-1.8-.4-2.8-.4v-.9C26 8.3 27 7.1 27 5.8c0-1.6-1.3-2.9-2.9-2.9s-2.9 1.2-2.9 2.8c0 1.4.9 2.5 2.2 2.8v.8c-3.4.3-6.7 1.6-9.2 3.9l-1.7-1.7c.4-.7.7-1.4.7-2.2 0-1-.4-2-1.1-2.7-1.5-1.4-4-1.4-5.5 0a3.8 3.8 0 0 0 0 5.4c.7.8 1.7 1.2 2.7 1.2.8 0 1.5-.2 2.1-.6l1.8 1.6c-2.3 2.6-3.6 5.8-3.8 9.1h-.8c-.4-1.2-1.5-2.1-2.9-2.1-1.6 0-2.9 1.3-2.9 2.9S4.1 27 5.7 27zm36.7-4.3c.8 0 1.4.6 1.4 1.4s-.6 1.4-1.4 1.4-1.4-.6-1.4-1.4.6-1.4 1.4-1.4zM11 40.5c-.9.9-2.4.9-3.3 0s-.9-2.4 0-3.3c.4-.4 1-.7 1.7-.7a2.19 2.19 0 0 1 1.7.7 2.19 2.19 0 0 1 .7 1.7c0 .7-.4 1.1-.8 1.6zm14.5 1.9c0 .8-.6 1.4-1.4 1.4s-1.4-.6-1.4-1.4.6-1.4 1.4-1.4 1.4.6 1.4 1.4zm15-5.2c.4.4.7 1 .7 1.7a2.19 2.19 0 0 1-.7 1.7c-.9.9-2.4.9-3.3 0-1-1-1-2.5 0-3.4.8-.9 2.4-.9 3.3 0zM37.2 7.7c.4-.4 1-.7 1.7-.7a2.19 2.19 0 0 1 1.7.7 2.19 2.19 0 0 1 .7 1.7 2.19 2.19 0 0 1-.7 1.7c-.9.9-2.4.9-3.3 0-1.1-1-1.1-2.5-.1-3.4zm-6.4 5.5c0 1.2-1 2.1-2.1 2.1-1.2 0-2.1-1-2.1-2.1s1-2.1 2.1-2.1 2.1.9 2.1 2.1zm-8.1-7.5c0-.8.6-1.4 1.4-1.4s1.4.6 1.4 1.4-.6 1.4-1.4 1.4-1.4-.6-1.4-1.4zM7.7 11c-.9-.9-.9-2.4 0-3.3.4-.4 1-.7 1.7-.7s1.1.2 1.6.7a2.19 2.19 0 0 1 .7 1.7c0 .7-.3 1.1-.7 1.6-.9.9-2.4.9-3.3 0zm6.5 4.3l1.3 1.3 1.1-1.1-1.3-1.3c2.9-2.6 6.8-3.7 10.6-3.2-.5.6-.8 1.4-.8 2.2 0 .9.4 1.8 1 2.4l-1.3 1.6 1.2.9 1.3-1.6c.4.2.9.3 1.4.3 1.8 0 3.3-1.4 3.6-3.2.4.3.8.7 1.2 1 2.3 2.3 3.7 5.4 3.8 8.6h-3v1.5h3c-.2 3.2-1.5 6.3-3.8 8.6s-5.3 3.7-8.6 3.8v-2h-1.5v2c-3.2-.2-6.3-1.5-8.6-3.8-5.1-4.9-5.2-12.8-.6-18zm-8.5 7.4c.8 0 1.4.6 1.4 1.4s-.6 1.4-1.4 1.4-1.4-.6-1.4-1.4.7-1.4 1.4-1.4zm23.4 3.7c2.2 0 4-1.8 4-4s-1.8-4-4-4c-2.1 0-3.7 1.6-3.9 3.6H23v1.5h2.3c.5 1.7 2 2.9 3.8 2.9zm0-6.4c1.4 0 2.5 1.1 2.5 2.5S30.5 25 29.1 25s-2.5-1.1-2.5-2.5 1.1-2.5 2.5-2.5zm-10.8 6.6v-.5l2.2-.7L20 24l-2.2.7c-.6-.9-1.6-1.4-2.7-1.4a3.33 3.33 0 0 0-3.3 3.3 3.33 3.33 0 0 0 3.3 3.3c1.8 0 3.2-1.4 3.2-3.3zm-5.1 0a1.79 1.79 0 0 1 1.8-1.8 1.8 1.8 0 1 1 0 3.6 1.79 1.79 0 0 1-1.8-1.8zm16 3.1c-.5 0-.9.1-1.3.3l-1.1-1.3-1.2 1 1.1 1.4c-.2.4-.4.9-.4 1.4a2.7 2.7 0 1 0 5.4 0c0-1.5-1-2.8-2.5-2.8zm0 4c-.7 0-1.2-.6-1.2-1.2s.5-1.3 1.2-1.3 1.2.6 1.2 1.2-.5 1.3-1.2 1.3z"/><path d="M19.9 20h.5l.5 1.1 1.4-.6-.5-1.2c.6-.5.9-1.2.9-2a2.69 2.69 0 0 0-2.7-2.7 2.69 2.69 0 0 0-2.7 2.7c0 1.5 1.1 2.7 2.6 2.7zm0-4c.7 0 1.2.6 1.2 1.2s-.6 1.2-1.2 1.2c-.7 0-1.2-.6-1.2-1.2s.5-1.2 1.2-1.2z"/></svg>